<svg xmlns="http://www.w3.org/2000/svg" width="93.75" viewBox="0 0 93.75 45" height="45" version="1.0"><defs><clipPath id="a"><path d="M 18.402344 15.46875 L 32.996094 15.46875 L 32.996094 35.757812 L 18.402344 35.757812 Z M 18.402344 15.46875"/></clipPath><clipPath id="b"><path d="M 0 18 L 22 18 L 22 35.761719 L 0 35.761719 Z M 0 18"/></clipPath><clipPath id="c"><path d="M 4 7.261719 L 27 7.261719 L 27 25 L 4 25 Z M 4 7.261719"/></clipPath></defs><g clip-path="url(#a)"><path fill="#A6A6A6" d="M 27.132812 15.492188 L 18.425781 15.492188 L 20.625 19.296875 L 24.929688 19.296875 L 28.59375 25.625 L 24.929688 31.953125 L 20.625 31.953125 L 18.425781 35.757812 L 27.132812 35.757812 L 32.996094 25.625 L 27.132812 15.492188"/></g><path fill="#38B6FF" d="M 22.316406 20.007812 L 20.164062 23.722656 L 15.859375 23.722656 L 14.761719 25.625 L 15.859375 27.527344 L 22.363281 27.527344 L 25.617188 21.910156 L 24.515625 20.007812 L 22.316406 20.007812"/><g clip-path="url(#b)"><path fill="#5E17EB" d="M 21.953125 28.238281 L 17.550781 28.238281 L 15.398438 31.953125 L 8.066406 31.953125 L 4.402344 25.625 L 6.554688 21.910156 L 4.351562 18.105469 L 0 25.625 L 5.867188 35.757812 L 17.601562 35.757812 L 21.953125 28.238281"/></g><path fill="#5E17EB" d="M 11.09375 15.492188 L 9.992188 17.394531 L 11.09375 19.296875 L 15.398438 19.296875 L 17.550781 23.011719 L 19.75 23.011719 L 20.851562 21.109375 L 17.601562 15.492188 L 11.09375 15.492188"/><path fill="#A6A6A6" d="M 16.085938 29.339844 L 13.933594 25.625 L 16.085938 21.910156 L 14.984375 20.007812 L 12.785156 20.007812 L 9.53125 25.625 L 12.785156 31.242188 L 14.984375 31.242188 L 16.085938 29.339844"/><g clip-path="url(#c)"><path fill="#38B6FF" d="M 9.117188 24.914062 L 11.320312 21.109375 L 9.167969 17.394531 L 12.832031 11.066406 L 20.164062 11.066406 L 22.316406 14.78125 L 26.71875 14.78125 L 22.363281 7.265625 L 10.632812 7.265625 L 4.765625 17.394531 L 9.117188 24.914062"/></g><g fill="#FFF"><g><g><path d="M 3.375 0.109375 C 2.78125 0.109375 2.25 -0.015625 1.78125 -0.265625 C 1.3125 -0.515625 0.941406 -0.859375 0.671875 -1.296875 C 0.410156 -1.742188 0.28125 -2.253906 0.28125 -2.828125 C 0.28125 -3.390625 0.410156 -3.890625 0.671875 -4.328125 C 0.941406 -4.773438 1.3125 -5.125 1.78125 -5.375 C 2.25 -5.625 2.78125 -5.75 3.375 -5.75 C 3.894531 -5.75 4.359375 -5.65625 4.765625 -5.46875 C 5.179688 -5.289062 5.53125 -5.03125 5.8125 -4.6875 L 4.796875 -3.765625 C 4.421875 -4.210938 3.972656 -4.4375 3.453125 -4.4375 C 3.148438 -4.4375 2.878906 -4.367188 2.640625 -4.234375 C 2.398438 -4.097656 2.210938 -3.90625 2.078125 -3.65625 C 1.953125 -3.414062 1.890625 -3.140625 1.890625 -2.828125 C 1.890625 -2.503906 1.953125 -2.21875 2.078125 -1.96875 C 2.210938 -1.726562 2.398438 -1.539062 2.640625 -1.40625 C 2.878906 -1.269531 3.148438 -1.203125 3.453125 -1.203125 C 3.972656 -1.203125 4.421875 -1.425781 4.796875 -1.875 L 5.8125 -0.953125 C 5.53125 -0.609375 5.179688 -0.34375 4.765625 -0.15625 C 4.359375 0.0195312 3.894531 0.109375 3.375 0.109375 Z M 3.375 0.109375" transform="translate(34.836 23.247)"/></g></g></g><g fill="#FFF"><g><g><path d="M 3.40625 0.109375 C 2.8125 0.109375 2.273438 -0.015625 1.796875 -0.265625 C 1.328125 -0.515625 0.957031 -0.863281 0.6875 -1.3125 C 0.414062 -1.757812 0.28125 -2.265625 0.28125 -2.828125 C 0.28125 -3.378906 0.414062 -3.878906 0.6875 -4.328125 C 0.957031 -4.773438 1.328125 -5.125 1.796875 -5.375 C 2.273438 -5.625 2.8125 -5.75 3.40625 -5.75 C 4.007812 -5.75 4.546875 -5.625 5.015625 -5.375 C 5.492188 -5.125 5.867188 -4.773438 6.140625 -4.328125 C 6.410156 -3.878906 6.546875 -3.378906 6.546875 -2.828125 C 6.546875 -2.265625 6.410156 -1.757812 6.140625 -1.3125 C 5.867188 -0.863281 5.492188 -0.515625 5.015625 -0.265625 C 4.546875 -0.015625 4.007812 0.109375 3.40625 0.109375 Z M 3.40625 -1.203125 C 3.695312 -1.203125 3.957031 -1.269531 4.1875 -1.40625 C 4.414062 -1.539062 4.597656 -1.726562 4.734375 -1.96875 C 4.867188 -2.21875 4.9375 -2.503906 4.9375 -2.828125 C 4.9375 -3.140625 4.867188 -3.414062 4.734375 -3.65625 C 4.597656 -3.90625 4.414062 -4.097656 4.1875 -4.234375 C 3.957031 -4.367188 3.695312 -4.4375 3.40625 -4.4375 C 3.125 -4.4375 2.867188 -4.367188 2.640625 -4.234375 C 2.410156 -4.097656 2.226562 -3.90625 2.09375 -3.65625 C 1.957031 -3.414062 1.890625 -3.140625 1.890625 -2.828125 C 1.890625 -2.503906 1.957031 -2.21875 2.09375 -1.96875 C 2.226562 -1.726562 2.410156 -1.539062 2.640625 -1.40625 C 2.867188 -1.269531 3.125 -1.203125 3.40625 -1.203125 Z M 3.40625 -1.203125" transform="translate(40.782 23.247)"/></g></g></g><g fill="#FFF"><g><g><path d="M 5.9375 -5.640625 L 5.9375 0 L 4.625 0 L 2.125 -3 L 2.125 0 L 0.5625 0 L 0.5625 -5.640625 L 1.875 -5.640625 L 4.375 -2.640625 L 4.375 -5.640625 Z M 5.9375 -5.640625" transform="translate(47.597 23.247)"/></g></g></g><g fill="#FFF"><g><g><path d="M 5.9375 -5.640625 L 5.9375 0 L 4.625 0 L 2.125 -3 L 2.125 0 L 0.5625 0 L 0.5625 -5.640625 L 1.875 -5.640625 L 4.375 -2.640625 L 4.375 -5.640625 Z M 5.9375 -5.640625" transform="translate(54.09 23.247)"/></g></g></g><g fill="#FFF"><g><g><path d="M 5.09375 -1.234375 L 5.09375 0 L 0.5625 0 L 0.5625 -5.640625 L 4.984375 -5.640625 L 4.984375 -4.40625 L 2.140625 -4.40625 L 2.140625 -3.453125 L 4.65625 -3.453125 L 4.65625 -2.265625 L 2.140625 -2.265625 L 2.140625 -1.234375 Z M 5.09375 -1.234375" transform="translate(60.582 23.247)"/></g></g></g><g fill="#FFF"><g><g><path d="M 3.375 0.109375 C 2.78125 0.109375 2.25 -0.015625 1.78125 -0.265625 C 1.3125 -0.515625 0.941406 -0.859375 0.671875 -1.296875 C 0.410156 -1.742188 0.28125 -2.253906 0.28125 -2.828125 C 0.28125 -3.390625 0.410156 -3.890625 0.671875 -4.328125 C 0.941406 -4.773438 1.3125 -5.125 1.78125 -5.375 C 2.25 -5.625 2.78125 -5.75 3.375 -5.75 C 3.894531 -5.75 4.359375 -5.65625 4.765625 -5.46875 C 5.179688 -5.289062 5.53125 -5.03125 5.8125 -4.6875 L 4.796875 -3.765625 C 4.421875 -4.210938 3.972656 -4.4375 3.453125 -4.4375 C 3.148438 -4.4375 2.878906 -4.367188 2.640625 -4.234375 C 2.398438 -4.097656 2.210938 -3.90625 2.078125 -3.65625 C 1.953125 -3.414062 1.890625 -3.140625 1.890625 -2.828125 C 1.890625 -2.503906 1.953125 -2.21875 2.078125 -1.96875 C 2.210938 -1.726562 2.398438 -1.539062 2.640625 -1.40625 C 2.878906 -1.269531 3.148438 -1.203125 3.453125 -1.203125 C 3.972656 -1.203125 4.421875 -1.425781 4.796875 -1.875 L 5.8125 -0.953125 C 5.53125 -0.609375 5.179688 -0.34375 4.765625 -0.15625 C 4.359375 0.0195312 3.894531 0.109375 3.375 0.109375 Z M 3.375 0.109375" transform="translate(65.996 23.247)"/></g></g></g><g fill="#FFF"><g><g><path d="M 1.765625 -4.375 L 0.03125 -4.375 L 0.03125 -5.640625 L 5.09375 -5.640625 L 5.09375 -4.375 L 3.359375 -4.375 L 3.359375 0 L 1.765625 0 Z M 1.765625 -4.375" transform="translate(71.941 23.247)"/></g></g></g><g fill="#FFF"><g><g><path d="M 5.09375 -1.234375 L 5.09375 0 L 0.5625 0 L 0.5625 -5.640625 L 4.984375 -5.640625 L 4.984375 -4.40625 L 2.140625 -4.40625 L 2.140625 -3.453125 L 4.65625 -3.453125 L 4.65625 -2.265625 L 2.140625 -2.265625 L 2.140625 -1.234375 Z M 5.09375 -1.234375" transform="translate(77.056 23.247)"/></g></g></g><g fill="#FFF"><g><g><path d="M 0.5625 -5.640625 L 3.234375 -5.640625 C 3.847656 -5.640625 4.394531 -5.523438 4.875 -5.296875 C 5.351562 -5.066406 5.722656 -4.738281 5.984375 -4.3125 C 6.253906 -3.882812 6.390625 -3.390625 6.390625 -2.828125 C 6.390625 -2.253906 6.253906 -1.753906 5.984375 -1.328125 C 5.722656 -0.898438 5.351562 -0.570312 4.875 -0.34375 C 4.394531 -0.113281 3.847656 0 3.234375 0 L 0.5625 0 Z M 3.171875 -1.28125 C 3.648438 -1.28125 4.035156 -1.414062 4.328125 -1.6875 C 4.617188 -1.957031 4.765625 -2.335938 4.765625 -2.828125 C 4.765625 -3.304688 4.617188 -3.679688 4.328125 -3.953125 C 4.035156 -4.234375 3.648438 -4.375 3.171875 -4.375 L 2.15625 -4.375 L 2.15625 -1.28125 Z M 3.171875 -1.28125" transform="translate(82.47 23.247)"/></g></g></g><g fill="#FFF"><g><g><path d="M 2.015625 -3.515625 C 2.253906 -3.515625 2.488281 -3.46875 2.71875 -3.375 C 2.957031 -3.28125 3.164062 -3.144531 3.34375 -2.96875 L 3 -2.546875 C 2.875 -2.679688 2.722656 -2.785156 2.546875 -2.859375 C 2.367188 -2.941406 2.191406 -2.984375 2.015625 -2.984375 C 1.671875 -2.984375 1.375 -2.863281 1.125 -2.625 C 0.882812 -2.394531 0.765625 -2.109375 0.765625 -1.765625 C 0.765625 -1.410156 0.882812 -1.113281 1.125 -0.875 C 1.375 -0.644531 1.671875 -0.53125 2.015625 -0.53125 C 2.378906 -0.53125 2.707031 -0.664062 3 -0.9375 L 3.34375 -0.546875 C 3.164062 -0.367188 2.957031 -0.226562 2.71875 -0.125 C 2.476562 -0.0195312 2.234375 0.03125 1.984375 0.03125 C 1.472656 0.03125 1.039062 -0.140625 0.6875 -0.484375 C 0.34375 -0.828125 0.171875 -1.25 0.171875 -1.75 C 0.171875 -2.25 0.347656 -2.664062 0.703125 -3 C 1.054688 -3.34375 1.492188 -3.515625 2.015625 -3.515625 Z M 2.015625 -3.515625" transform="translate(69.663 30.156)"/></g></g></g><g fill="#FFF"><g><g><path d="M 0.703125 -3 C 1.054688 -3.34375 1.492188 -3.515625 2.015625 -3.515625 C 2.546875 -3.515625 2.988281 -3.34375 3.34375 -3 C 3.695312 -2.664062 3.875 -2.25 3.875 -1.75 C 3.875 -1.25 3.695312 -0.828125 3.34375 -0.484375 C 2.988281 -0.140625 2.546875 0.03125 2.015625 0.03125 C 1.492188 0.03125 1.054688 -0.140625 0.703125 -0.484375 C 0.347656 -0.828125 0.171875 -1.25 0.171875 -1.75 C 0.171875 -2.25 0.347656 -2.664062 0.703125 -3 Z M 2.03125 -2.984375 C 1.6875 -2.984375 1.390625 -2.863281 1.140625 -2.625 C 0.890625 -2.382812 0.765625 -2.09375 0.765625 -1.75 C 0.765625 -1.40625 0.890625 -1.109375 1.140625 -0.859375 C 1.390625 -0.617188 1.6875 -0.5 2.03125 -0.5 C 2.375 -0.5 2.664062 -0.617188 2.90625 -0.859375 C 3.15625 -1.109375 3.28125 -1.40625 3.28125 -1.75 C 3.28125 -2.09375 3.15625 -2.382812 2.90625 -2.625 C 2.664062 -2.863281 2.375 -2.984375 2.03125 -2.984375 Z M 2.03125 -2.984375" transform="translate(73.721 30.156)"/></g></g></g><g fill="#FFF"><g><g><path d="M 1.046875 0 L 0.453125 0 L 0.453125 -3.5 L 1.046875 -3.5 Z M 1.046875 0" transform="translate(78.343 30.156)"/></g></g></g><g fill="#FFF"><g><g><path d="M 3.5 0 L 2.921875 0 L 1.046875 -2.515625 L 1.046875 0 L 0.453125 0 L 0.453125 -3.5 L 1.046875 -3.5 L 2.921875 -0.984375 L 2.921875 -3.5 L 3.5 -3.5 Z M 3.5 0" transform="translate(80.427 30.156)"/></g></g></g><g fill="#FFF"><g><g><path d="M 1.609375 -3.53125 C 2.066406 -3.53125 2.472656 -3.410156 2.828125 -3.171875 L 2.59375 -2.640625 C 2.238281 -2.859375 1.894531 -2.96875 1.5625 -2.96875 C 1.382812 -2.96875 1.242188 -2.9375 1.140625 -2.875 C 1.046875 -2.8125 1 -2.722656 1 -2.609375 C 1 -2.492188 1.046875 -2.394531 1.140625 -2.3125 C 1.234375 -2.226562 1.347656 -2.164062 1.484375 -2.125 C 1.617188 -2.082031 1.769531 -2.03125 1.9375 -1.96875 C 2.101562 -1.914062 2.253906 -1.859375 2.390625 -1.796875 C 2.535156 -1.734375 2.648438 -1.628906 2.734375 -1.484375 C 2.828125 -1.347656 2.875 -1.179688 2.875 -0.984375 C 2.875 -0.679688 2.75 -0.4375 2.5 -0.25 C 2.257812 -0.0703125 1.945312 0.015625 1.5625 0.015625 C 1.289062 0.015625 1.03125 -0.03125 0.78125 -0.125 C 0.53125 -0.226562 0.3125 -0.363281 0.125 -0.53125 L 0.390625 -1.046875 C 0.566406 -0.878906 0.757812 -0.75 0.96875 -0.65625 C 1.175781 -0.570312 1.375 -0.53125 1.5625 -0.53125 C 1.769531 -0.53125 1.929688 -0.566406 2.046875 -0.640625 C 2.160156 -0.722656 2.21875 -0.828125 2.21875 -0.953125 C 2.21875 -1.078125 2.171875 -1.179688 2.078125 -1.265625 C 1.984375 -1.347656 1.867188 -1.40625 1.734375 -1.4375 C 1.597656 -1.476562 1.445312 -1.523438 1.28125 -1.578125 C 1.113281 -1.640625 0.957031 -1.695312 0.8125 -1.75 C 0.675781 -1.8125 0.5625 -1.910156 0.46875 -2.046875 C 0.375 -2.191406 0.328125 -2.359375 0.328125 -2.546875 C 0.328125 -2.847656 0.441406 -3.085938 0.671875 -3.265625 C 0.910156 -3.441406 1.222656 -3.53125 1.609375 -3.53125 Z M 1.609375 -3.53125" transform="translate(84.96 30.156)"/></g></g></g></svg>